<svg aria-hidden="true" style="width:0;height:0;position:absolute;overflow:hidden" xmlns="http://www.w3.org/2000/svg"><defs><symbol id="icon-menu" viewBox="0 0 44 32"><path d="M0 0v4.431h44.308V0H0zm0 13.292v4.431h44.308v-4.431H0zm0 17.723v-4.431h44.308v4.431H0z"/></symbol><symbol id="arrow" viewBox="0 0 24 24"><path d="m10 17 5-5-5-5v10z" style="stroke-width:2px;stroke-linejoin:round"/></symbol><symbol id="icon-facebook" viewBox="0 0 32 32"><path d="M21.328 5.312h2.923V.224A36.478 36.478 0 0 0 20.144 0h-.157.008c-4.213 0-7.099 2.65-7.099 7.52V12H8.25v5.688h4.646V32h5.699V17.69h4.459l.709-5.688h-5.17V8.08c0-1.643.443-2.768 2.734-2.768z"/></symbol><symbol id="icon-twitter" viewBox="0 0 32 32"><path d="M32 6.078c-1.1.493-2.376.857-3.713 1.028l-.068.007a6.556 6.556 0 0 0 2.873-3.579l.013-.046a12.88 12.88 0 0 1-4.076 1.573l-.084.014A6.558 6.558 0 0 0 15.6 9.557v.004c0 .52.043 1.021.152 1.496-5.454-.266-10.28-2.88-13.522-6.861a6.524 6.524 0 0 0-.902 3.313v.001a6.57 6.57 0 0 0 2.914 5.451 6.453 6.453 0 0 1-2.994-.823l.033.017v.072a6.592 6.592 0 0 0 5.213 6.44l.043.008a6.403 6.403 0 0 1-1.662.215h-.061.003c-.419 0-.843-.024-1.242-.112.85 2.598 3.261 4.509 6.13 4.57a13.093 13.093 0 0 1-8.122 2.8H1.57h.001-.062c-.531 0-1.055-.034-1.569-.099l.061.006c2.826 1.846 6.287 2.944 10.004 2.944h.063-.003c12.072 0 18.672-10 18.672-18.669 0-.288-.01-.57-.024-.848a13.203 13.203 0 0 0 3.258-3.355l.03-.047z"/></symbol><symbol id="icon-google" viewBox="0 0 36 28"><path d="M22.453 14.266c0 6.547-4.391 11.188-11 11.188C5.125 25.454 0 20.329 0 14.001S5.125 2.548 11.453 2.548c3.094 0 5.672 1.125 7.672 3l-3.109 2.984c-.844-.812-2.328-1.766-4.562-1.766C7.548 6.766 4.36 10 4.36 14s3.187 7.234 7.094 7.234c4.531 0 6.234-3.266 6.5-4.937h-6.5v-3.938h10.813c.109.578.187 1.156.187 1.906zM36 12.359v3.281h-3.266v3.266h-3.281V15.64h-3.266v-3.281h3.266V9.093h3.281v3.266H36z"/></symbol><symbol id="icon-linkedin" viewBox="0 0 32 32"><path d="M31.992 32H32V20.262c0-5.741-1.235-10.163-7.947-10.163-3.227 0-5.392 1.77-6.277 3.45h-.093v-2.914h-6.365v21.363h6.627V21.42c0-2.786.528-5.48 3.978-5.48 3.398 0 3.45 3.179 3.45 5.658V32h6.619zM.528 10.635h6.635V32H.528V10.635zM3.843 0A3.843 3.843 0 0 0 0 3.843c0 2.12 1.722 3.878 3.843 3.878 2.12 0 3.842-1.757 3.842-3.878S5.965.002 3.844 0z"/></symbol><symbol id="icon-logo" viewBox="0 0 192 34" fill="none"><path fill-rule="evenodd" clip-rule="evenodd" d="M147.956 8.225c-2.23 0-4.021-1.791-4.021-4.094 0-2.267 1.827-4.131 4.094-4.131 2.266 0 4.13 1.791 4.13 4.058 0 2.302-1.864 4.167-4.203 4.167ZM71.521 32.277h-6.653v-28h6.762v7.676s2.998-2.559 6.91-2.559c6.615 0 10.527 5.593 10.527 11.698 0 6.25-3.985 11.734-10.308 11.734-2.961 0-5.155-.841-7.238-2.888v2.34Zm-21.165.549c-6.909 0-11.661-4.204-11.661-11.734 0-6.8 4.862-11.698 11.478-11.698 6.47 0 11.04 4.277 11.04 12.283v.194l.008.315c.008.275.015.514-.009.843H45.421c.585 2.669 2.705 3.948 5.264 3.948 2.102 0 3.522-1.397 4.658-2.844l.203-.263s3.315 1.911 4.87 2.845l.43.262c-1.973 3.51-5.775 5.849-10.49 5.849Zm-41.599-.549L.203 9.833h7.165l4.46 12.429 4.094-12.429h5.446l4.314 12.502 4.423-12.502h7.055l-8.444 22.444H22.83l-4.167-12.063-4.02 12.063H8.756ZM50.1 15.097c2.12 0 3.29 1.023 4.094 3.18h-8.517c.84-2.084 2.12-3.18 4.423-3.18Zm26.904.585c3.07 0 5.3 2.412 5.3 5.264 0 3.18-1.681 5.848-5.008 5.848-3.546 0-5.848-2.23-5.848-5.702 0-3.253 2.376-5.41 5.556-5.41Zm26.758 17.363c-6.873 0-12.136-5.63-12.136-11.88 0-6.726 5.373-11.77 12.282-11.77 6.799 0 12.099 4.898 12.099 11.66 0 6.836-4.935 11.99-12.245 11.99Zm.109-17.254c3.18 0 5.374 2.267 5.374 5.155 0 3.509-2.047 5.665-5.41 5.665-3.107 0-5.41-2.339-5.41-5.336 0-3.071 2.156-5.484 5.446-5.484Zm29.207 16.486h-6.068l-9.394-22.444h7.603l4.898 13.123 4.606-13.123h7.165l-8.81 22.444Zm18.314-22.444h-6.799v22.444h6.799V9.833Zm3.655 11.332c0 6.25 5.264 11.88 12.136 11.88 7.311 0 12.246-5.154 12.246-11.99 0-6.762-5.301-11.66-12.1-11.66-6.908 0-12.282 5.044-12.282 11.77Zm17.619-.22c0-2.887-2.193-5.154-5.373-5.154-3.29 0-5.447 2.413-5.447 5.484 0 2.997 2.303 5.337 5.41 5.337 3.363 0 5.41-2.157 5.41-5.666Z" fill="#fff"/><path d="M186.082 24.182c2.303 0 4.203 1.9 4.203 4.203 0 2.303-1.9 4.204-4.203 4.204-2.303 0-4.204-1.9-4.204-4.204 0-2.303 1.901-4.203 4.204-4.203Z" fill="#fff"/></symbol><symbol id="double-up-arrow" fill="#4f553d" viewBox="0 0 24 24"><path fill="none" d="M0 0h24v24H0z"/><path d="M6 17.59 7.41 19 12 14.42 16.59 19 18 17.59l-6-6z"/><path d="m6 11 1.41 1.41L12 7.83l4.59 4.58L18 11l-6-6z"/></symbol></defs></svg>